<svg t="1685432495468" class="icon" viewBox="0 0 1024 1024" version="1.1" xmlns="http://www.w3.org/2000/svg" p-id="16617" width="200" height="200"><path d="M981.344 618.656H42.688a21.376 21.376 0 0 1 0-42.688h938.656c11.744 0 21.344 9.6 21.344 21.344s-9.6 21.344-21.344 21.344zM192 725.344A21.376 21.376 0 0 1 170.656 704V320a21.344 21.344 0 0 1 42.688 0v384a21.376 21.376 0 0 1-21.344 21.344z m640 0a21.408 21.408 0 0 1-21.344-21.344V320a21.376 21.376 0 0 1 42.688 0v384c0 11.744-9.6 21.344-21.344 21.344z m-320-167.136c-194.592 0-341.344-102.4-341.344-238.208a21.344 21.344 0 0 1 42.688 0c0 111.488 128.384 195.552 298.656 195.552s298.656-84.064 298.656-195.552a21.376 21.376 0 0 1 42.688 0c0 135.84-146.72 238.208-341.344 238.208z m-469.28-31.2a21.28 21.28 0 0 1-8.096-41.024c85.216-35.04 136.064-97.024 136.064-165.92a21.344 21.344 0 0 1 42.688 0c0 86.816-60.768 163.584-162.528 205.408a21.92 21.92 0 0 1-8.096 1.568z m938.56 0a20.128 20.128 0 0 1-8.096-1.632c-101.76-41.824-162.528-118.56-162.528-205.408a21.376 21.376 0 0 1 42.688 0c0 68.896 50.816 130.912 136.064 165.92 10.848 4.48 16.096 16.928 11.552 27.808a21.184 21.184 0 0 1-19.68 13.28z" p-id="16618" fill="#5b647e"></path></svg>
