<svg t="1685432741798" class="icon" viewBox="0 0 1024 1024" version="1.1" xmlns="http://www.w3.org/2000/svg" p-id="19015" width="200" height="200"><path d="M779.264 573.44c-79.872 0-144.384 64.512-144.384 144.384 0 78.848 62.464 142.848 141.312 144.384h3.072c79.872 0 144.384-65.024 144.384-144.384 0.512-79.36-65.024-144.384-144.384-144.384z m0 237.568c-51.2 0-92.16-41.472-92.16-92.16s41.472-92.16 92.16-92.16c51.2 0 92.16 41.472 92.16 92.16 0 50.176-41.472 92.16-92.16 92.16zM244.736 573.44c-79.872 0-144.384 64.512-144.384 144.384 0 78.848 62.464 142.848 141.312 144.384h3.072c79.872 0 144.384-65.024 144.384-144.384S324.608 573.44 244.736 573.44z m0 237.568c-51.2 0-92.16-41.472-92.16-92.16s41.472-92.16 92.16-92.16c51.2 0 92.16 41.472 92.16 92.16 0 50.176-40.96 92.16-92.16 92.16z m276.992-394.752h3.072c79.872 0 144.384-64.512 144.384-144.384s-64.512-144.384-144.384-144.384-144.384 64.512-144.384 144.384c0 78.336 62.464 142.848 141.312 144.384z m3.072-237.056c51.2 0 92.16 40.96 92.16 92.16s-40.96 92.16-92.16 92.16-92.16-40.96-92.16-92.16c0-50.688 40.96-92.16 92.16-92.16z m259.072 359.936c15.872 0.512 30.72 3.072 45.568 7.168-10.752-89.6-59.904-170.496-134.144-222.208-4.096 14.336-9.728 28.672-17.92 41.472 56.832 41.984 94.72 104.448 106.496 173.568z m-533.504 0c11.776-72.704 53.248-136.704 113.664-178.176-7.168-13.312-12.288-27.648-15.872-42.496-78.848 50.176-131.584 133.12-142.848 225.792 13.824-3.072 27.648-5.12 41.472-5.12h3.584z m385.536 287.232c-36.864 17.92-77.824 27.648-119.296 27.648-45.056 0-87.552-11.264-124.928-30.72-9.216 12.288-19.456 23.552-31.232 33.28 47.616 27.136 101.376 41.472 156.16 41.472s106.496-13.824 151.04-38.912c-11.264-9.216-22.528-20.48-31.744-32.768z" fill="#5b647e" p-id="19016"></path></svg>
