<svg t="1685432874720" class="icon" viewBox="0 0 1092 1024" version="1.1" xmlns="http://www.w3.org/2000/svg" p-id="22442" width="200" height="200"><path d="M468.855467 45.192533A154.2144 154.2144 0 0 0 205.482667 154.2144H25.736533A25.668267 25.668267 0 0 0 0 179.8144v308.4288a25.736533 25.736533 0 0 0 25.736533 25.736533h77.141334v434.107734a25.736533 25.736533 0 0 0 25.668266 25.736533h770.730667a25.736533 25.736533 0 0 0 25.668267-25.736533v-434.176h77.141333a25.736533 25.736533 0 0 0 25.668267-25.668267V179.8144a25.668267 25.668267 0 0 0-25.668267-25.6h-179.677867A154.2144 154.2144 0 0 0 668.125867 0v0.2048A154.2144 154.2144 0 0 0 514.048 151.415467 154.2144 154.2144 0 0 0 468.855467 45.192533z m-52.565334 108.680534v0.341333H303.3088v-6.212267a56.866133 56.866133 0 0 1 56.5248-50.653866l-0.2048-0.136534a56.7296 56.7296 0 0 1 56.661333 56.661334z m195.037867 0.341333h113.595733a56.866133 56.866133 0 0 0-50.517333-56.5248l-6.280533-0.341333a57.002667 57.002667 0 0 0-56.456534 50.653866l-0.341333 6.144zM97.416533 251.562667H250.538667l0.136533 0.136533h218.112l0.136533-0.136533h89.565867l0.546133 0.4096h218.043734l0.546133-0.4096h152.917333v165.205333h-102.8096v459.912533H200.157867V416.768H97.416533v-165.205333z m465.237334 413.9008V413.832533H465.3056v251.630934h97.348267z" fill="#5b647e" p-id="22443"></path></svg>
