<svg t="1685433064666" class="icon" viewBox="0 0 1024 1024" version="1.1" xmlns="http://www.w3.org/2000/svg" p-id="32403" width="200" height="200"><path d="M736.571077 759.059692v73.373539l194.087385 0.787692-0.315077 78.769231-193.772308-0.787692v72.900923l-105.944615-111.458462 37.454769-40.211692v-0.236308l0.275692-0.039385 68.214154-73.097846zM512 39.384615c208.974769 0 391.286154 136.822154 451.741538 333.508923l0.748308 2.363077 5.828923 21.110154 2.914462 12.248616 5.12 26.190769-77.351385 14.966154-4.765538-24.65477-2.205539-9.255384-5.159384-18.550154-3.859693-11.933538A393.924923 393.924923 0 0 0 512.039385 118.153846a391.798154 391.798154 0 0 0-232.684308 76.051692A390.931692 390.931692 0 0 0 170.929231 314.919385l-4.608 8.231384-5.001846 9.531077-6.459077 13.115077a389.474462 389.474462 0 0 0-30.838154 98.146462l-2.087385 13.508923-2.363077 20.873846-0.708923 9.924923-0.630154 14.257231a391.561846 391.561846 0 0 0 52.696616 206.336 393.294769 393.294769 0 0 0 314.092307 196.01723l-5.474461 78.572308-13.705846-1.181538a471.945846 471.945846 0 0 1-363.126154-234.023385 470.488615 470.488615 0 0 1-62.424615-265.452308l0.905846-11.894153 2.678154-23.945847 2.441846-15.832615 3.426461-17.723077a467.889231 467.889231 0 0 1 41.708308-117.090461l5.710769-10.83077 5.356308-9.531077 8.428308-14.060307A469.622154 469.622154 0 0 1 232.763077 130.638769 470.488615 470.488615 0 0 1 512.039385 39.384615z m368.836923 550.872616l68.135385 73.097846h0.354461l-0.039384 0.315077 37.494153 40.172308-105.944615 111.458461-0.039385-72.900923-193.732923 0.827077-0.315077-78.769231 194.048-0.827077v-73.373538z m-315.825231-285.538462a128 128 0 0 1 100.864 206.808616 128 128 0 0 1-100.864 206.729846H384.512v-413.538462h180.499692z m0 256h-82.077538v59.076923h82.077538a29.538462 29.538462 0 1 0 0-59.076923z m0-157.538461h-82.077538v59.076923h82.077538a29.538462 29.538462 0 1 0 0-59.076923z" fill="#5b647e" p-id="32404"></path></svg>
