<svg t="1685433108519" class="icon" viewBox="0 0 1024 1024" version="1.1" xmlns="http://www.w3.org/2000/svg" p-id="33618" width="200" height="200"><path d="M832 298.666667h-106.666667v-66.133334C725.333333 198.4 697.6 170.666667 661.333333 170.666667H362.666667c-36.266667 0-64 27.733333-64 61.866666V298.666667H192c-36.266667 0-64 19.2-64 53.333333V853.333333h768V352c0-34.133333-27.733333-53.333333-64-53.333333z m0 42.666666c12.8 0 21.333333 0 21.333333 10.666667v93.866667l-128 93.866666V341.333333h106.666667z m-469.333333-128h298.666666c12.8 0 21.333333 8.533333 21.333334 19.2v337.066667l-160 117.333333c-6.4 4.266667-14.933333 4.266667-21.333334 0L341.333333 569.6V232.533333c0-10.666667 10.666667-19.2 21.333334-19.2z m-170.666667 128h106.666667v198.4l-128-93.866666v-93.866667c0-10.666667 8.533333-10.666667 21.333333-10.666667zM170.666667 810.666667V497.066667l307.2 226.133333 2.133333 2.133333c10.666667 6.4 21.333333 8.533333 32 8.533334 12.8 0 23.466667-4.266667 34.133333-10.666667L853.333333 497.066667V810.666667H170.666667z" fill="#5b647e" p-id="33619"></path><path d="M512 558.933333l104.533333-211.2c4.266667-10.666667 0-23.466667-10.666666-27.733333-10.666667-4.266667-23.466667 0-27.733334 10.666667L512 465.066667l-68.266667-134.4c-4.266667-10.666667-17.066667-14.933333-27.733333-10.666667-10.666667 4.266667-14.933333 17.066667-8.533333 27.733333l104.533333 211.2z" fill="#5b647e" p-id="33620"></path></svg>
